<svg version="1" xmlns="http://www.w3.org/2000/svg" width="266.667" height="266.667" viewBox="0 0 200.000000 200.000000"><path d="M98.5 2.2c-10.9 1-26.7 4.8-33.9 8.1-5.7 2.6-26.7 20.6-35.7 30.5C3 69.5-1.9 113.8 17 148.7c26.6 49.4 90.4 65.4 136.9 34.2 9-6 20.3-17 26-25.3 4.4-6.3 11.5-21.7 13.4-29.1 7-26.2 2.6-54.3-11.9-76.8-5.9-9.1-17.8-21.4-26.5-27.4-4.1-2.7-8.1-6.6-10.3-9.7-6.9-10-9-11.4-19.1-12.6-10.2-1.1-14.2-1.1-27 .2zm33.7 5.6c3.4 1.4 15.8 19.1 15.8 22.7 0 .3-2.2.5-4.8.4l-4.9-.2-3.6-7.1c-6.5-12.4-5.6-11.8-19.8-12.4-6.9-.2-16.4.1-21.4.7-8.2 1.1-27.1 5-32 6.6l-2 .7 2-1.7C66.2 13.6 78.1 9.8 93 7.4c9.6-1.5 34.9-1.2 39.2.4zm-34.9 9.9c-.7.2-2.1.2-3 0-1-.3-.4-.5 1.2-.5 1.7 0 2.4.2 1.8.5zm-8 1c-.7.2-1.9.2-2.5 0-.7-.3-.2-.5 1.2-.5s1.9.2 1.3.5zm-5.6.9c-.3.3-1.2.4-1.9.1-.8-.3-.5-.6.6-.6 1.1-.1 1.7.2 1.3.5zm23.3 2.9c1.9 1.9 3.2 3.5 2.9 3.5-.3 0-2-1.6-3.9-3.5s-3.2-3.5-2.9-3.5c.3 0 2 1.6 3.9 3.5zm-28.3-1.9c-.3.3-1.2.4-1.9.1-.8-.3-.5-.6.6-.6 1.1-.1 1.7.2 1.3.5zm-9 2c-.3.3-1.2.4-1.9.1-.8-.3-.5-.6.6-.6 1.1-.1 1.7.2 1.3.5zm-7 2c-.3.3-1.2.4-1.9.1-.8-.3-.5-.6.6-.6 1.1-.1 1.7.2 1.3.5zm48.7 3.2c.2.4-1.2.8-3.2.9-3.6.1-3.6.1-.7-.7 1.7-.4 3.1-.8 3.2-.9.1 0 .4.3.7.7zm-60.8 1.5c-5.4 3.5-6.4 5-8.1 11.1-1.3 4.9-2.3 6.7-4.2 7.5-1.3.6-2.6 1.1-2.8 1.1-.8 0 2.5-8.3 4.7-11.8 1.8-2.9 10-9.3 11.7-9.1.4 0-.2.6-1.3 1.2zm50.7.4c-.7.2-1.9.2-2.5 0-.7-.3-.2-.5 1.2-.5s1.9.2 1.3.5zm-6 1c-.7.2-1.9.2-2.5 0-.7-.3-.2-.5 1.2-.5s1.9.2 1.3.5zm-5.6.9c-.3.3-1.2.4-1.9.1-.8-.3-.5-.6.6-.6 1.1-.1 1.7.2 1.3.5zm-5 1c-.3.3-1.2.4-1.9.1-.8-.3-.5-.6.6-.6 1.1-.1 1.7.2 1.3.5zm-9 2c-.3.3-1.2.4-1.9.1-.8-.3-.5-.6.6-.6 1.1-.1 1.7.2 1.3.5zm-7 2c-.3.3-1.2.4-1.9.1-.8-.3-.5-.6.6-.6 1.1-.1 1.7.2 1.3.5zm72.6 2.6c-1.4 2.6-1.8 5.6-1.8 14.3 0 9.4.3 11.8 2.3 16.2 1.3 2.8 3.2 5.9 4.3 6.9 2.4 2.2 2.4 3-.1 3.7-2.9.8-7.6-5.4-10-13.2-4.1-13-1.4-31.1 4.6-31.1h2.5l-1.8 3.2zm14.5-.6c5.4 3.8 9.1 17.6 7.2 26.9-3.8 18.1-18 11.3-19.7-9.5-1.1-13.7 5.2-22.5 12.5-17.4zm-98.7 1.5c-3 1-5.6 1.7-5.8 1.5-.5-.5 7.7-3.4 9.7-3.4.8-.1-.9.8-3.9 1.9zm72.5 6.9c-1.2 6.2.4 19 3.3 25.6l2 4.5-4.6 2c-7.5 3.2-23.9 7.8-36.3 10.2-9.6 1.8-15.1 2.2-33.3 2.2-17.4 0-21.9-.3-22.6-1.4-2.1-3.3-4.2-24.5-2.6-26C37.3 62.4 54.3 56 66 52.6c18.7-5.5 45.7-10.2 59.1-10.5l5.6-.1-1.1 5zM46 44c-.8.5-1.9 1-2.5 1-.5 0-.3-.5.5-1s2-1 2.5-1c.6 0 .3.5-.5 1zm124.8 6.7c5.5 7.5 10.5 16.9 13.3 25.2 2.8 7.9 2.5 8.8-1.7 5.2-2.6-2.3-4.1-3-5.7-2.5-1.2.3-6.9 5.2-12.6 10.8-5.7 5.5-10 9.2-9.6 8.1.4-1.1 1.2-5.2 1.7-9 1-6.3 1.5-7.3 4.9-10.3 7-6.1 9.1-21.1 4.4-32.5-1.4-3.3.3-1.7 5.3 5zm-142.4 7c-2.5 1.8-2.8.9-.7-2.3 1.6-2.4 1.8-2.6 2.2-.9.2 1-.5 2.5-1.5 3.2zm2.1 17.4c.8 6.3 2.1 13.9 2.9 16.7 1.2 4.8 1.2 5.2-.4 5.2-5 0-10.1-31.3-5.6-34.2 1.4-.9 1.2-1.6 3.1 12.3zM23 81c2.3 13.9 5.4 20 10.5 20 1.9 0 3 1.5 6.1 7.7 3.3 6.5 4.8 8.4 9.1 11.2l5.1 3.4-5.2 10.1c-2.9 5.6-6.8 14-8.7 18.8-1.9 4.9-3.7 8.8-4.2 8.8-1.2 0-9.7-12-12.7-18-5.9-11.8-8.3-21.4-8.8-36.2-.5-14.7.8-23.6 5.2-34.8l2.1-5.5.3 4c.1 2.2.7 6.9 1.2 10.5zm144.5 13c-6 6-11.4 11-12 11-.5 0 4-5 10-11 6-6.1 11.4-11 12-11 .5 0-4 4.9-10 11zm-47-5c-1.1.5-2.7.9-3.5.9-.9 0-.8-.4.5-.9 1.1-.5 2.7-.9 3.5-.9.9 0 .8.4-.5.9zm54.5 13.5c-5.8 5.8-10.9 10.5-11.5 10.5-.5 0 4-4.9 10-11 6-6 11.1-10.7 11.4-10.4.3.2-4.2 5.2-9.9 10.9zm-67.3-9.9c-.3.3-1.2.4-1.9.1-.8-.3-.5-.6.6-.6 1.1-.1 1.7.2 1.3.5zm-5 1c-.3.3-1.2.4-1.9.1-.8-.3-.5-.6.6-.6 1.1-.1 1.7.2 1.3.5zm-4.4 1.1c-.7.2-1.9.2-2.5 0-.7-.3-.2-.5 1.2-.5s1.9.2 1.3.5zm-6 1c-.7.2-1.9.2-2.5 0-.7-.3-.2-.5 1.2-.5s1.9.2 1.3.5zm-43.4 8.8c2.2 4.7 4.9 9.9 6.1 11.5 2.4 3.4 2.1 3.6-1.8 1.6-5.3-2.8-8.5-7.2-12-16.4l-2-5.2H42c2.7 0 3.3.7 6.9 8.5zm37.4-7.8c-.7.2-2.1.2-3 0-1-.3-.4-.5 1.2-.5 1.7 0 2.4.2 1.8.5zm102.1 11.8c-1.3 15.7-6.8 31.8-14.5 43.2-4.5 6.6-9.2 12.3-10.3 12.3-.5 0-.5-2.6-.1-5.8 1-8.2 1.1-15.3.1-18.5-.7-2.4-.6-2.7 1.4-2.7 3 0 9-6.6 9-9.9 0-1.6-1.4-4-3.7-6.3l-3.7-3.8 10.4-10.5c10.4-10.4 10.5-10.5 11.3-7.8.4 1.6.4 5.9.1 9.8zM51.3 97.7c-.7.2-2.1.2-3 0-1-.3-.4-.5 1.2-.5 1.7 0 2.4.2 1.8.5zm25 0c-1.3.2-3.5.2-5 0-1.6-.2-.5-.4 2.2-.4 2.8 0 4 .2 2.8.4zm72.7 10.7c.6.8 1.5 4.9 1.9 9l.7 7.5-5.1 3.3c-2.7 1.9-5.9 4.8-7 6.6-1.8 2.9-2.4 3.1-7.5 3.2h-5.6l-3.2-5.3c-3.3-5.5-6.2-12.8-6.2-15.7 0-2.5 2.6-4.3 5.3-3.6 1.2.3 5.4 4.4 9.2 9.1 3.9 4.6 7.3 8.5 7.7 8.5.3 0 .8-4.5 1-9.9.2-8 .7-10.3 2.2-12 2.2-2.4 4.9-2.7 6.6-.7zm-34.2 2.5c-1.3 1.5-2.5 2.7-2.7 2.5-.4-.4 3.9-5.4 4.7-5.4.2 0-.7 1.3-2 2.9zM127 109c0 .5-.2 1-.4 1-.3 0-.8-.5-1.1-1-.3-.6-.1-1 .4-1 .6 0 1.1.4 1.1 1zm42.4 17.3c.7 1.3.3 2.4-1.4 4.2-1.3 1.4-2.9 2.5-3.5 2.5-.6 0-2.7-1.7-4.7-3.8-3.2-3.3-3.6-4.4-4.1-10.5l-.5-6.8 6.7 6.3c3.6 3.4 7 7.1 7.5 8.1zm-57.7-9.1c-.3.8-.6.5-.6-.6-.1-1.1.2-1.7.5-1.3.3.3.4 1.2.1 1.9zm-51 1.4c-.3.3-1.2.4-1.9.1-.8-.3-.5-.6.6-.6 1.1-.1 1.7.2 1.3.5zm48.6.1c-.7.2-2.1.2-3 0-1-.3-.4-.5 1.2-.5 1.7 0 2.4.2 1.8.5zm-41.5 1c-1 .2-2.8.2-4 0-1.3-.2-.5-.4 1.7-.4 2.2-.1 3.2.1 2.3.4zm34 0c-1 .2-2.8.2-4 0-1.3-.2-.5-.4 1.7-.4 2.2-.1 3.2.1 2.3.4zm-14 1c-2.6.2-7.1.2-10 0-2.9-.2-.8-.3 4.7-.3s7.9.1 5.3.3zm26.7 5.3c.4 1.4-1.3 5.2-5.8 12.7-8.5 14.1-16.6 29.6-21.3 40.8-2.1 4.9-3.9 9.2-4.1 9.4-.3.4-8-1.4-11.7-2.9l-2.6-1 6.9-13.9c13.5-26.9 25.7-45.7 29.9-46.4 6.4-1 8.1-.7 8.7 1.3zm-58.8 7.8c-.7 2.4-1.6 3.9-2.1 3.5-.4-.4-.5.6-.2 2.2.4 2 .3 2.4-.2 1.1-.7-1.5-1.1-1.2-2.7 2.3-1 2.3-2 3.9-2.2 3.7-.2-.2 1.5-4.2 3.9-8.9 2.3-4.8 4.3-8.5 4.5-8.4.1.2-.4 2.2-1 4.5zm99.7-2.2c3.5 3.6 3.3 4.9-1.3 9.5-2.7 2.8-4.7 3.9-6.8 3.9-3.7 0-6.7-3.1-5.8-5.9.6-2 9.1-10.1 10.5-10.1.4 0 1.9 1.2 3.4 2.6zm-93.5 5.2c-1.5 6.7-2.8 41.5-1.7 43 1.6 1.9-1.3 1.5-3.9-.6-2.2-1.7-2.2-1.7-.8-13.7 2.2-18.4 5.6-34.7 7-33.4.2.3 0 2.4-.6 4.7zm21.5 9.4c-.8 1.6-1.7 2.8-2 2.8-.2 0 .2-1.3 1-2.8 1.5-2.8 1.4-3-2.5-6.8-2.1-2.1-3.9-4.2-3.9-4.7s2 1.3 4.4 4c4.2 4.6 4.3 4.9 3 7.5zm33.2-7c.4.6.3.8-.3.5-.5-.3-2.6 2.3-4.7 5.9-2.1 3.5-4 6.4-4.3 6.4-.5 0-.5 0 4.1-7.8 2.1-3.4 3.9-6.2 4.1-6.2.2 0 .7.5 1.1 1.2zm21.4 7.5c0 4.7-2.4 7.3-6.7 7.3-5.4 0-7.3-1.5-7.3-5.8 0-5.1.9-6 6-6.4 6.4-.5 8 .5 8 4.9zm-18.2-2.2c-.3.3-.9-.2-1.2-1.2-.6-1.4-.5-1.5.5-.6.7.7 1 1.5.7 1.8zm-67.1 1.7c-.3.8-.6.5-.6-.6-.1-1.1.2-1.7.5-1.3.3.3.4 1.2.1 1.9zm107.8.2c1.9 2.9 1 5.4-2.9 8-4.9 3.1-11.3 1.3-10.4-3 .3-1.5 8.8-7.1 11-7.3.4-.1 1.5 1 2.3 2.3zm-15.2 11.3c.9.9 3.6 1.9 5.9 2.2l4.3.6-4.6 2.3c-5.9 2.9-11.6 2.9-15.9-.1-4.1-2.7-4.9-4.7-2-4.7 2.6 0 8.9-6 9.1-8.7.1-1 .5.1.8 2.5.4 2.3 1.5 5 2.4 5.9zm-93.6-5.5c-.3.7-.5.2-.5-1.2s.2-1.9.5-1.3c.2.7.2 1.9 0 2.5zm-5.6.5c-1.2 2-1.4 1.4-.5-1.2.4-.9.9-1.4 1.1-1.1.3.2 0 1.3-.6 2.3zM79 154c-1.1 2.2-2.3 4-2.5 4-.3 0 .4-1.8 1.5-4s2.3-4 2.5-4c.3 0-.4 1.8-1.5 4zm41.4-1.4c.3.8.2 1.2-.4.9-.6-.3-1-1-1-1.6 0-1.4.7-1.1 1.4.7zm-20.1 13.9c-3.7 7.4-6.9 13.3-7.1 13.1-.4-.5 12.6-26.6 13.3-26.6.3 0-2.5 6.1-6.2 13.5zm-56.2-8.8c-1.2 2-1.4 1.4-.5-1.2.4-.9.9-1.4 1.1-1.1.3.2 0 1.3-.6 2.3zm6.6 1c-.3 1-.5.4-.5-1.2 0-1.7.2-2.4.5-1.8.2.7.2 2.1 0 3zm75.1 1.1c1.3 2.3 2.1 4.2 1.8 4.2-.3 0-1.5-1.8-2.6-3.9-1-2.2-2.4-4.1-3-4.4-.6-.3-.5-.4.2-.3.7.1 2.3 2.1 3.6 4.4zm-76.1 6.9c-.3 1-.5.4-.5-1.2 0-1.7.2-2.4.5-1.8.2.7.2 2.1 0 3zm22.1.8c-1.2 2.4-2.3 4.3-2.6 4.1-.4-.5 3.6-8.6 4.3-8.6.3 0-.5 2-1.7 4.5zm85.8 3.1c-.3.8-1.1 1.4-1.8 1.3-1 0-1-.2 0-.6.6-.2 1.2-1.6 1.2-2.9 0-1.8-.4-2.3-1.2-1.8-.8.5-.7 0 .2-1.1 1.4-1.7 1.5-1.7 1.8.9.2 1.5.1 3.4-.2 4.2zm-108.7 2.1c.2.2.2.5 0 .8-.3.2-2.5-1.4-4.9-3.6l-4.5-4 4.5 3.3c2.5 1.8 4.7 3.4 4.9 3.5zm16.7 8c-.8 1.5-1.5 2.5-1.6 2.1 0-1.2 2.3-5.8 2.7-5.4.3.2-.2 1.7-1.1 3.3zm25.5 5c-1.2 2-1.4 1.4-.5-1.2.4-.9.9-1.4 1.1-1.1.3.2 0 1.3-.6 2.3zm32.6 1.9c-.3.3-1.2.4-1.9.1-.8-.3-.5-.6.6-.6 1.1-.1 1.7.2 1.3.5zm-28.7 2c0 .2-1.3.4-3 .4-1.6 0-3-.4-3-.8 0-.5 1.4-.7 3-.4 1.7.2 3 .6 3 .8zm24.3-.9c-.7.2-1.9.2-2.5 0-.7-.3-.2-.5 1.2-.5s1.9.2 1.3.5zm-6.5 1c-1 .2-2.8.2-4 0-1.3-.2-.5-.4 1.7-.4 2.2-.1 3.2.1 2.3.4z"/><path d="M149.6 48.2c-3.7 5.3-.2 18.3 4.9 18.3 6.6 0 4.9-19-1.8-20.3-.8-.2-2.2.7-3.1 2zM98.1 50.6c-8 5.7-6.1 23.8 3 28.8 7.8 4.2 14.9-2.1 14.9-13.2-.1-12.3-10.1-21-17.9-15.6zM110 56c3.6 3.6 1.9 12-2.5 12-1.9 0-5.5-4.8-5.5-7.4 0-2.7 2.7-6.6 4.6-6.6.8 0 2.3.9 3.4 2zM56.3 61.2c-4.8 5.3-5.6 11.4-2.4 18.4C59.5 91.9 73 88.2 73 74.4c0-11.2-10.8-19.7-16.7-13.2zM68 65.9c1.5 2.8 1.2 7.7-.5 9.1-3.6 3-8.6-3.1-6.6-8.3 1.3-3.3 5.5-3.7 7.1-.8z"/></svg>